<mxfile host="app.diagrams.net" modified="2021-12-09T07:55:08.309Z" agent="5.0 (Windows NT 10.0; Win64; x64) AppleWebKit/537.36 (KHTML, like Gecko) Chrome/96.0.4664.55 Safari/537.36 Edg/96.0.1054.43" etag="FGpS-FBRgj8JDNWpSmaN" version="15.8.8" type="github">
  <diagram id="C5RBs43oDa-KdzZeNtuy" name="Page-1">
    <mxGraphModel dx="1038" dy="588" grid="1" gridSize="10" guides="1" tooltips="1" connect="1" arrows="1" fold="1" page="1" pageScale="1" pageWidth="827" pageHeight="1169" math="0" shadow="0">
      <root>
        <mxCell id="WIyWlLk6GJQsqaUBKTNV-0" />
        <mxCell id="WIyWlLk6GJQsqaUBKTNV-1" parent="WIyWlLk6GJQsqaUBKTNV-0" />
        <mxCell id="uq8xhp7VMNw02AQf7L-d-4" style="edgeStyle=orthogonalEdgeStyle;rounded=0;orthogonalLoop=1;jettySize=auto;html=1;exitX=1;exitY=0.5;exitDx=0;exitDy=0;fontSize=14;" edge="1" parent="WIyWlLk6GJQsqaUBKTNV-1" source="uq8xhp7VMNw02AQf7L-d-1" target="uq8xhp7VMNw02AQf7L-d-2">
          <mxGeometry relative="1" as="geometry" />
        </mxCell>
        <mxCell id="uq8xhp7VMNw02AQf7L-d-1" value="&lt;font style=&quot;font-size: 14px&quot;&gt;获取视频信息&lt;/font&gt;" style="shape=parallelogram;perimeter=parallelogramPerimeter;whiteSpace=wrap;html=1;fixedSize=1;" vertex="1" parent="WIyWlLk6GJQsqaUBKTNV-1">
          <mxGeometry x="179" y="130" width="120" height="60" as="geometry" />
        </mxCell>
        <mxCell id="uq8xhp7VMNw02AQf7L-d-5" style="edgeStyle=orthogonalEdgeStyle;rounded=0;orthogonalLoop=1;jettySize=auto;html=1;exitX=1;exitY=0.5;exitDx=0;exitDy=0;entryX=0;entryY=0.5;entryDx=0;entryDy=0;fontSize=14;" edge="1" parent="WIyWlLk6GJQsqaUBKTNV-1" source="uq8xhp7VMNw02AQf7L-d-2" target="uq8xhp7VMNw02AQf7L-d-3">
          <mxGeometry relative="1" as="geometry" />
        </mxCell>
        <mxCell id="uq8xhp7VMNw02AQf7L-d-2" value="&lt;span lang=&quot;EN-US&quot; style=&quot;font-size: 12pt ; font-family: &amp;#34;times new roman&amp;#34; , serif&quot;&gt;YOLO&lt;/span&gt;侦测人的位置" style="rounded=0;whiteSpace=wrap;html=1;fontSize=14;" vertex="1" parent="WIyWlLk6GJQsqaUBKTNV-1">
          <mxGeometry x="339" y="130" width="151" height="60" as="geometry" />
        </mxCell>
        <mxCell id="uq8xhp7VMNw02AQf7L-d-3" value="&lt;span lang=&quot;EN-US&quot; style=&quot;font-size: 12pt ; font-family: &amp;#34;times new roman&amp;#34; , serif&quot;&gt;MobilePose&lt;br&gt;&lt;/span&gt;&lt;span style=&quot;font-size: 12pt&quot;&gt;识别人体关键点&lt;/span&gt;" style="rounded=0;whiteSpace=wrap;html=1;fontSize=14;" vertex="1" parent="WIyWlLk6GJQsqaUBKTNV-1">
          <mxGeometry x="540" y="130" width="130" height="60" as="geometry" />
        </mxCell>
      </root>
    </mxGraphModel>
  </diagram>
</mxfile>
